nColumns=55
nRows=48
DataType=double
version=3
OpenSimVersion=4.1
endheader
time	ground_force_1_vx	ground_force_1_vy	ground_force_1_vz	ground_force_1_px	ground_force_1_py	ground_force_1_pz	ground_force_1_mx	ground_force_1_my	ground_force_1_mz	ground_force_2_vx	ground_force_2_vy	ground_force_2_vz	ground_force_2_px	ground_force_2_py	ground_force_2_pz	ground_force_2_mx	ground_force_2_my	ground_force_2_mz	ground_force_3_vx	ground_force_3_vy	ground_force_3_vz	ground_force_3_px	ground_force_3_py	ground_force_3_pz	ground_force_3_mx	ground_force_3_my	ground_force_3_mz	ground_force_4_vx	ground_force_4_vy	ground_force_4_vz	ground_force_4_px	ground_force_4_py	ground_force_4_pz	ground_force_4_mx	ground_force_4_my	ground_force_4_mz	ground_force_5_vx	ground_force_5_vy	ground_force_5_vz	ground_force_5_px	ground_force_5_py	ground_force_5_pz	ground_force_5_mx	ground_force_5_my	ground_force_5_mz	ground_force_6_vx	ground_force_6_vy	ground_force_6_vz	ground_force_6_px	ground_force_6_py	ground_force_6_pz	ground_force_6_mx	ground_force_6_my	ground_force_6_mz
0.005	0	0	0	0	0	0	0	0	0	-108.2	515.09	2.83979	0.19721	0	-0.426511	217.749	62.4207	100.637	0	0	0	0	0	0	0	0	0	0	0	0	0	0	0	0	0	0	0	0	0	0	0	0	0	0	0	0	0	0	0	0	0	0	0	0
0.01	0	0	0	0	0	0	0	0	0	-108.813	530.762	-13.1317	0.197192	0	-0.426261	229.492	71.4138	102.874	0	0	0	0	0	0	0	0	0	0	0	0	0	0	0	0	0	0	0	0	0	0	0	0	0	0	0	0	0	0	0	0	0	0	0	0
0.015	0	0	0	0	0	0	0	0	0	-92.5519	554.412	-17.2763	0.197231	0	-0.426087	236.607	45.4585	110.111	0	0	0	0	0	0	0	0	0	0	0	0	0	0	0	0	0	0	0	0	0	0	0	0	0	0	0	0	0	0	0	0	0	0	0	0
0.02	0	0	0	0	0	0	0	0	0	-75.9413	568.567	-10.3103	0.19728	0	-0.426108	240.843	13.9553	114.334	0	0	0	0	0	0	0	0	0	0	0	0	0	0	0	0	0	0	0	0	0	0	0	0	0	0	0	0	0	0	0	0	0	0	0	0
0.025	0	0	0	0	0	0	0	0	0	-75.9431	588.567	8.38146	0.19726	0	-0.426169	253.524	9.90489	117.34	0	0	0	0	0	0	0	0	0	0	0	0	0	0	0	0	0	0	0	0	0	0	0	0	0	0	0	0	0	0	0	0	0	0	0	0
0.03	0	0	0	0	0	0	0	0	0	-90.8622	600.588	-1.43601	0.197129	0	-0.426153	253.527	40.8751	117.98	0	0	0	0	0	0	0	0	0	0	0	0	0	0	0	0	0	0	0	0	0	0	0	0	0	0	0	0	0	0	0	0	0	0	0	0
0.035	0	0	0	0	0	0	0	0	0	-108.161	623.647	-0.947528	0.196876	0	-0.42599	267.402	65.6107	120.212	0	0	0	0	0	0	0	0	0	0	0	0	0	0	0	0	0	0	0	0	0	0	0	0	0	0	0	0	0	0	0	0	0	0	0	0
0.04	0	0	0	0	0	0	0	0	0	-108.439	632.341	3.73968	0.196519	0	-0.425657	269.117	59.4024	123.335	0	0	0	0	0	0	0	0	0	0	0	0	0	0	0	0	0	0	0	0	0	0	0	0	0	0	0	0	0	0	0	0	0	0	0	0
0.045	0	0	0	0	0	0	0	0	0	-97.6229	645.04	13.9754	0.196089	0	-0.425169	271.721	28.9014	126.945	0	0	0	0	0	0	0	0	0	0	0	0	0	0	0	0	0	0	0	0	0	0	0	0	0	0	0	0	0	0	0	0	0	0	0	0
0.05	0	0	0	0	0	0	0	0	0	-88.5231	661.306	10.188	0.195623	0	-0.424565	281.188	17.6365	130.816	0	0	0	0	0	0	0	0	0	0	0	0	0	0	0	0	0	0	0	0	0	0	0	0	0	0	0	0	0	0	0	0	0	0	0	0
0.055	0	0	0	0	0	0	0	0	0	-90.9788	678.464	3.47928	0.195159	0	-0.42389	287.222	35.9131	133.205	0	0	0	0	0	0	0	0	0	0	0	0	0	0	0	0	0	0	0	0	0	0	0	0	0	0	0	0	0	0	0	0	0	0	0	0
0.06	0	0	0	0	0	0	0	0	0	-102.059	695.851	14.9066	0.194728	0	-0.423193	295.459	52.7826	134.752	0	0	0	0	0	0	0	0	0	0	0	0	0	0	0	0	0	0	0	0	0	0	0	0	0	0	0	0	0	0	0	0	0	0	0	0
0.065	0	0	0	0	0	0	0	0	0	-111.967	704.489	13.1484	0.194356	0	-0.422514	297.787	58.5373	135.822	0	0	0	0	0	0	0	0	0	0	0	0	0	0	0	0	0	0	0	0	0	0	0	0	0	0	0	0	0	0	0	0	0	0	0	0
0.07	0	0	0	0	0	0	0	0	0	-111.224	721.171	14.5278	0.194061	0	-0.421884	303.766	45.2223	139.536	0	0	0	0	0	0	0	0	0	0	0	0	0	0	0	0	0	0	0	0	0	0	0	0	0	0	0	0	0	0	0	0	0	0	0	0
0.075	0	0	0	0	0	0	0	0	0	-96.3418	731.749	0.376062	0.193853	0	-0.42132	308.309	32.0236	142.78	0	0	0	0	0	0	0	0	0	0	0	0	0	0	0	0	0	0	0	0	0	0	0	0	0	0	0	0	0	0	0	0	0	0	0	0
0.08	0	0	0	0	0	0	0	0	0	-85.9972	746.458	7.95715	0.193737	0	-0.420835	314.204	28.099	145.453	0	0	0	0	0	0	0	0	0	0	0	0	0	0	0	0	0	0	0	0	0	0	0	0	0	0	0	0	0	0	0	0	0	0	0	0
0.085	0	0	0	0	0	0	0	0	0	-90.5103	754.022	7.63789	0.193712	0	-0.42043	318.672	42.2108	146.237	0	0	0	0	0	0	0	0	0	0	0	0	0	0	0	0	0	0	0	0	0	0	0	0	0	0	0	0	0	0	0	0	0	0	0	0
0.09	0	0	0	0	0	0	0	0	0	-105.488	761.254	5.39706	0.193774	0	-0.420103	317.034	52.0477	146.906	0	0	0	0	0	0	0	0	0	0	0	0	0	0	0	0	0	0	0	0	0	0	0	0	0	0	0	0	0	0	0	0	0	0	0	0
0.095	0	0	0	0	0	0	0	0	0	-112.027	772.265	-1.5078	0.193916	0	-0.419849	326.793	51.5471	149.072	0	0	0	0	0	0	0	0	0	0	0	0	0	0	0	0	0	0	0	0	0	0	0	0	0	0	0	0	0	0	0	0	0	0	0	0
0.1	0	0	0	0	0	0	0	0	0	-100.218	773.614	0.55606	0.194127	0	-0.419663	322.962	40.8414	150.175	0	0	0	0	0	0	0	0	0	0	0	0	0	0	0	0	0	0	0	0	0	0	0	0	0	0	0	0	0	0	0	0	0	0	0	0
0.105	0	0	0	0	0	0	0	0	0	-85.7265	778.342	3.78237	0.194398	0	-0.41954	326.34	33.6528	151.642	0	0	0	0	0	0	0	0	0	0	0	0	0	0	0	0	0	0	0	0	0	0	0	0	0	0	0	0	0	0	0	0	0	0	0	0
0.11	0	0	0	0	0	0	0	0	0	-83.5901	782.891	0.110032	0.194713	0	-0.419475	331.719	34.7268	153.111	0	0	0	0	0	0	0	0	0	0	0	0	0	0	0	0	0	0	0	0	0	0	0	0	0	0	0	0	0	0	0	0	0	0	0	0
0.115	0	0	0	0	0	0	0	0	0	-93.7811	778.565	-2.97816	0.195058	0	-0.419463	322.917	43.3893	151.465	0	0	0	0	0	0	0	0	0	0	0	0	0	0	0	0	0	0	0	0	0	0	0	0	0	0	0	0	0	0	0	0	0	0	0	0
0.12	0	0	0	0	0	0	0	0	0	-97.9406	780.212	-1.14614	0.19542	0	-0.419499	327.929	43.6635	152.392	0	0	0	0	0	0	0	0	0	0	0	0	0	0	0	0	0	0	0	0	0	0	0	0	0	0	0	0	0	0	0	0	0	0	0	0
0.125	0	0	0	0	0	0	0	0	0	-92.7696	778.298	2.24846	0.195785	0	-0.419577	327.395	40.3252	151.955	0	0	0	0	0	0	0	0	0	0	0	0	0	0	0	0	0	0	0	0	0	0	0	0	0	0	0	0	0	0	0	0	0	0	0	0
0.13	0	0	0	0	0	0	0	0	0	-83.9597	774.579	2.61034	0.196141	0	-0.419688	324.261	37.3489	152.011	0	0	0	0	0	0	0	0	0	0	0	0	0	0	0	0	0	0	0	0	0	0	0	0	0	0	0	0	0	0	0	0	0	0	0	0
0.135	0	0	0	0	0	0	0	0	0	-79.9793	772.193	-3.18885	0.19648	0	-0.419821	324.486	35.6792	151.898	0	0	0	0	0	0	0	0	0	0	0	0	0	0	0	0	0	0	0	0	0	0	0	0	0	0	0	0	0	0	0	0	0	0	0	0
0.14	0	0	0	0	0	0	0	0	0	-79.311	772.161	1.14584	0.196795	0	-0.419964	324.418	31.2791	152.369	0	0	0	0	0	0	0	0	0	0	0	0	0	0	0	0	0	0	0	0	0	0	0	0	0	0	0	0	0	0	0	0	0	0	0	0
0.145	0	0	0	0	0	0	0	0	0	-79.3643	765.593	3.30451	0.197086	0	-0.420106	322.067	31.4894	150.907	0	0	0	0	0	0	0	0	0	0	0	0	0	0	0	0	0	0	0	0	0	0	0	0	0	0	0	0	0	0	0	0	0	0	0	0
0.15	0	0	0	0	0	0	0	0	0	-79.2041	762.934	2.61647	0.197356	0	-0.420239	318.915	35.9615	150.319	0	0	0	0	0	0	0	0	0	0	0	0	0	0	0	0	0	0	0	0	0	0	0	0	0	0	0	0	0	0	0	0	0	0	0	0
0.155	0	0	0	0	0	0	0	0	0	-76.528	764.288	-1.16272	0.197613	0	-0.420357	324.21	36.1263	150.91	0	0	0	0	0	0	0	0	0	0	0	0	0	0	0	0	0	0	0	0	0	0	0	0	0	0	0	0	0	0	0	0	0	0	0	0
0.16	0	0	0	0	0	0	0	0	0	-71.1178	754.166	0.236057	0.197864	0	-0.420458	314.355	31.8774	148.922	0	0	0	0	0	0	0	0	0	0	0	0	0	0	0	0	0	0	0	0	0	0	0	0	0	0	0	0	0	0	0	0	0	0	0	0
0.165	0	0	0	0	0	0	0	0	0	-65.2121	754.065	6.02478	0.198122	0	-0.420548	317.973	23.2188	149.79	0	0	0	0	0	0	0	0	0	0	0	0	0	0	0	0	0	0	0	0	0	0	0	0	0	0	0	0	0	0	0	0	0	0	0	0
0.17	0	0	0	0	0	0	0	0	0	-62.7176	747.61	0.682992	0.198394	0	-0.420637	315.797	22.2305	148.477	0	0	0	0	0	0	0	0	0	0	0	0	0	0	0	0	0	0	0	0	0	0	0	0	0	0	0	0	0	0	0	0	0	0	0	0
0.175	0	0	0	0	0	0	0	0	0	-64.665	744.271	-0.693563	0.198688	0	-0.420735	311.012	27.8507	147.872	0	0	0	0	0	0	0	0	0	0	0	0	0	0	0	0	0	0	0	0	0	0	0	0	0	0	0	0	0	0	0	0	0	0	0	0
0.18	0	0	0	0	0	0	0	0	0	-64.8182	739.935	-2.53188	0.199007	0	-0.420857	313.177	32.0531	146.927	0	0	0	0	0	0	0	0	0	0	0	0	0	0	0	0	0	0	0	0	0	0	0	0	0	0	0	0	0	0	0	0	0	0	0	0
0.185	0	0	0	0	0	0	0	0	0	-60.2859	732.577	4.12141	0.199351	0	-0.421015	307.65	25.5453	145.714	0	0	0	0	0	0	0	0	0	0	0	0	0	0	0	0	0	0	0	0	0	0	0	0	0	0	0	0	0	0	0	0	0	0	0	0
0.19	0	0	0	0	0	0	0	0	0	-54.7084	727.87	1.22303	0.199714	0	-0.421217	306.858	19.7206	145.693	0	0	0	0	0	0	0	0	0	0	0	0	0	0	0	0	0	0	0	0	0	0	0	0	0	0	0	0	0	0	0	0	0	0	0	0
0.195	0	0	0	0	0	0	0	0	0	-51.6288	723.758	-2.28583	0.200088	0	-0.421462	304.749	18.0723	145.201	0	0	0	0	0	0	0	0	0	0	0	0	0	0	0	0	0	0	0	0	0	0	0	0	0	0	0	0	0	0	0	0	0	0	0	0
0.2	0	0	0	0	0	0	0	0	0	-51.3037	719.453	-3.70367	0.200459	0	-0.421743	303.952	19.6056	144.392	0	0	0	0	0	0	0	0	0	0	0	0	0	0	0	0	0	0	0	0	0	0	0	0	0	0	0	0	0	0	0	0	0	0	0	0
0.205	0	0	0	0	0	0	0	0	0	-52.0543	710.968	0.665535	0.200813	0	-0.422042	299	22.4277	142.368	0	0	0	0	0	0	0	0	0	0	0	0	0	0	0	0	0	0	0	0	0	0	0	0	0	0	0	0	0	0	0	0	0	0	0	0
0.21	0	0	0	0	0	0	0	0	0	-51.4914	706.871	0.866921	0.201134	0	-0.422334	298.841	23.108	141.828	0	0	0	0	0	0	0	0	0	0	0	0	0	0	0	0	0	0	0	0	0	0	0	0	0	0	0	0	0	0	0	0	0	0	0	0
0.215	0	0	0	0	0	0	0	0	0	-47.9253	701.45	-2.35189	0.201408	0	-0.422591	295.74	18.4335	141.231	0	0	0	0	0	0	0	0	0	0	0	0	0	0	0	0	0	0	0	0	0	0	0	0	0	0	0	0	0	0	0	0	0	0	0	0
0.22	0	0	0	0	0	0	0	0	0	-43.3526	698.94	-3.12656	0.201622	0	-0.422786	295.008	14.1353	141.039	0	0	0	0	0	0	0	0	0	0	0	0	0	0	0	0	0	0	0	0	0	0	0	0	0	0	0	0	0	0	0	0	0	0	0	0
0.225	0	0	0	0	0	0	0	0	0	-38.7508	700.899	-1.90303	0.201765	0	-0.422896	299.882	12.0205	142.227	0	0	0	0	0	0	0	0	0	0	0	0	0	0	0	0	0	0	0	0	0	0	0	0	0	0	0	0	0	0	0	0	0	0	0	0
0.23	0	0	0	0	0	0	0	0	0	-38.7033	688.367	-3.59293	0.201831	0	-0.422912	290.391	14.0257	138.832	0	0	0	0	0	0	0	0	0	0	0	0	0	0	0	0	0	0	0	0	0	0	0	0	0	0	0	0	0	0	0	0	0	0	0	0
0.235	0	0	0	0	0	0	0	0	0	-42.5583	685.572	-3.91722	0.201817	0	-0.422833	287.881	17.4525	138.069	0	0	0	0	0	0	0	0	0	0	0	0	0	0	0	0	0	0	0	0	0	0	0	0	0	0	0	0	0	0	0	0	0	0	0	0
0.24	0	0	0	0	0	0	0	0	0	-42.5303	684.429	-1.50241	0.201725	0	-0.422673	289.873	17.4356	137.684	0	0	0	0	0	0	0	0	0	0	0	0	0	0	0	0	0	0	0	0	0	0	0	0	0	0	0	0	0	0	0	0	0	0	0	0
